<?xml version="1.0" standalone="no"?>
<!DOCTYPE svg PUBLIC "-//W3C//DTD SVG 20010904//EN"
 "http://www.w3.org/TR/2001/REC-SVG-20010904/DTD/svg10.dtd">
<svg version="1.0" xmlns="http://www.w3.org/2000/svg"
 width="700.000000pt" height="700.000000pt" viewBox="0 0 700.000000 700.000000"
 preserveAspectRatio="xMidYMid meet">
<metadata>
Created by potrace 1.14, written by Peter Selinger 2001-2017
</metadata>
<g transform="translate(0.000000,700.000000) scale(0.100000,-0.100000)"
fill="#000000" stroke="none">
<path d="M3300 5745 l0 -105 280 0 280 0 0 -875 c0 -481 -3 -875 -7 -875 -5 0
-21 9 -38 21 -59 40 -201 107 -291 137 -312 105 -685 104 -965 -1 -378 -143
-667 -446 -788 -830 -57 -178 -66 -255 -66 -537 0 -225 3 -268 23 -367 99
-492 375 -827 793 -963 149 -49 247 -64 419 -63 364 2 641 89 850 267 l65 55
3 -134 3 -135 544 0 545 0 0 105 0 105 -200 0 -200 0 0 2150 0 2150 -625 0
-625 0 0 -105z m22 -1870 c196 -41 373 -128 496 -244 l42 -40 0 -825 0 -825
-58 -73 c-123 -154 -302 -272 -479 -314 -92 -23 -268 -22 -352 0 -351 94 -521
473 -521 1156 0 379 45 631 148 840 81 166 222 286 380 324 77 19 254 19 344
1z"/>
</g>
</svg>
