<svg xmlns="http://www.w3.org/2000/svg" xmlns:xlink="http://www.w3.org/1999/xlink" width="500" zoomAndPan="magnify" viewBox="0 0 375 374.999991" height="500" preserveAspectRatio="xMidYMid meet" version="1.0"><defs><clipPath id="fddfe15167"><path d="M 104.933594 13 L 269.929688 13 L 269.929688 362 L 104.933594 362 Z M 104.933594 13 " clip-rule="nonzero"/></clipPath></defs><g clip-path="url(#fddfe15167)"><path fill="#ffffff" d="M 231.96875 70.714844 L 270.066406 70.714844 L 270.066406 13.273438 L 221.417969 13.273438 L 221.417969 13.496094 C 157.460938 15.839844 144.273438 51.667969 143.171875 89.542969 L 143.027344 89.542969 L 143.027344 129.398438 L 104.933594 129.398438 L 104.933594 186.910156 L 143.027344 186.910156 L 143.027344 361.71875 L 211.382812 361.71875 L 211.382812 186.910156 L 260.398438 186.910156 L 270.066406 129.398438 L 211.382812 129.398438 L 211.382812 93.71875 C 211.382812 81.042969 219.878906 70.714844 231.96875 70.714844 Z M 231.96875 70.714844 " fill-opacity="1" fill-rule="nonzero"/></g></svg>