<svg xmlns="http://www.w3.org/2000/svg" xmlns:xlink="http://www.w3.org/1999/xlink" width="500" zoomAndPan="magnify" viewBox="0 0 375 374.999991" height="500" preserveAspectRatio="xMidYMid meet" version="1.0"><defs><clipPath id="1ceaaf0286"><path d="M 12.570312 12.570312 L 362.5 12.570312 L 362.5 362.5 L 12.570312 362.5 Z M 12.570312 12.570312 " clip-rule="nonzero"/></clipPath></defs><g clip-path="url(#1ceaaf0286)"><path fill="#ffffff" d="M 310.417969 362.425781 L 64.578125 362.425781 C 35.902344 362.425781 12.570312 339.09375 12.570312 310.417969 L 12.570312 64.578125 C 12.570312 35.902344 35.902344 12.570312 64.578125 12.570312 L 310.417969 12.570312 C 339.09375 12.570312 362.425781 35.902344 362.425781 64.578125 L 362.425781 310.417969 C 362.425781 339.09375 339.09375 362.425781 310.417969 362.425781 Z M 64.578125 31.484375 C 46.328125 31.484375 31.484375 46.328125 31.484375 64.578125 L 31.484375 310.417969 C 31.484375 328.667969 46.328125 343.515625 64.578125 343.515625 L 310.417969 343.515625 C 328.667969 343.515625 343.515625 328.667969 343.515625 310.417969 L 343.515625 64.578125 C 343.515625 46.328125 328.667969 31.484375 310.417969 31.484375 Z M 64.578125 31.484375 " fill-opacity="1" fill-rule="nonzero"/></g><path fill="#ffffff" d="M 187.5 286.78125 C 132.753906 286.78125 88.214844 242.242188 88.214844 187.5 C 88.214844 132.753906 132.753906 88.214844 187.5 88.214844 C 242.242188 88.214844 286.78125 132.753906 286.78125 187.5 C 286.78125 242.242188 242.242188 286.78125 187.5 286.78125 Z M 187.5 107.128906 C 143.183594 107.128906 107.128906 143.183594 107.128906 187.5 C 107.128906 231.816406 143.183594 267.871094 187.5 267.871094 C 231.816406 267.871094 267.871094 231.816406 267.871094 187.5 C 267.871094 143.183594 231.816406 107.128906 187.5 107.128906 Z M 187.5 107.128906 " fill-opacity="1" fill-rule="nonzero"/><path fill="#ffffff" d="M 291.511719 116.582031 C 273.261719 116.582031 258.414062 101.738281 258.414062 83.488281 C 258.414062 65.242188 273.261719 50.394531 291.511719 50.394531 C 309.757812 50.394531 324.601562 65.242188 324.601562 83.488281 C 324.601562 101.738281 309.757812 116.582031 291.511719 116.582031 Z M 291.511719 69.304688 C 283.6875 69.304688 277.328125 75.667969 277.328125 83.488281 C 277.328125 91.308594 283.6875 97.671875 291.511719 97.671875 C 299.328125 97.671875 305.691406 91.308594 305.691406 83.488281 C 305.691406 75.667969 299.328125 69.304688 291.511719 69.304688 Z M 291.511719 69.304688 " fill-opacity="1" fill-rule="nonzero"/></svg>