<svg xmlns="http://www.w3.org/2000/svg" xmlns:xlink="http://www.w3.org/1999/xlink" width="500" zoomAndPan="magnify" viewBox="0 0 375 374.999991" height="500" preserveAspectRatio="xMidYMid meet" version="1.0"><defs><clipPath id="9ac83a1187"><path d="M 2.410156 55.242188 L 372.410156 55.242188 L 372.410156 319.617188 L 2.410156 319.617188 Z M 2.410156 55.242188 " clip-rule="nonzero"/></clipPath></defs><g clip-path="url(#9ac83a1187)"><path fill="#ffffff" d="M 42.070312 55.292969 C 20.167969 55.292969 2.410156 73.023438 2.410156 94.953125 C 2.902344 155.097656 2.410156 218.753906 2.410156 280.042969 C 2.410156 301.152344 18.828125 318.234375 39.59375 319.5 L 334.578125 319.707031 C 355.722656 318.851562 372.585938 301.429688 372.585938 280.046875 L 372.585938 88.140625 C 369.375 69.441406 353.140625 55.296875 333.542969 55.296875 C 236.4375 55.339844 139.214844 55.296875 42.070312 55.296875 Z M 41.453125 76.160156 L 334.78125 76.160156 L 192.863281 218.074219 C 190.277344 220.664062 186.160156 220.664062 183.570312 218.074219 L 41.449219 76.160156 Z M 352.757812 86.277344 L 352.757812 278.601562 C 352.757812 290.058594 348.625 296.53125 340.359375 298.84375 L 240.378906 198.660156 L 352.757812 86.28125 Z M 24.515625 87.105469 L 135.03125 197.625 L 34.019531 298.636719 C 27.105469 296.300781 24.699219 290.730469 24.519531 283.140625 L 24.519531 87.105469 Z M 149.078125 211.457031 L 183.578125 246.160156 C 186.164062 248.753906 190.28125 248.753906 192.875 246.160156 L 226.335938 212.699219 L 313.511719 299.871094 L 60.671875 299.871094 L 149.082031 211.460938 Z M 149.078125 211.457031 " fill-opacity="1" fill-rule="nonzero"/></g></svg>