<svg xmlns="http://www.w3.org/2000/svg" xmlns:xlink="http://www.w3.org/1999/xlink" width="500" zoomAndPan="magnify" viewBox="0 0 375 374.999991" height="500" preserveAspectRatio="xMidYMid meet" version="1.0"><path fill="#ffffff" d="M 266.320312 238.535156 C 260.554688 235.152344 253.464844 235.222656 247.730469 238.632812 L 218.671875 255.945312 C 212.167969 259.824219 204.042969 259.367188 198.078125 254.710938 C 187.769531 246.65625 171.167969 233.109375 156.726562 218.664062 C 142.28125 204.222656 128.730469 187.621094 120.679688 177.3125 C 116.023438 171.34375 115.566406 163.222656 119.441406 156.71875 L 136.753906 127.660156 C 140.179688 121.921875 140.207031 114.777344 136.824219 109.011719 L 94.191406 36.183594 C 90.058594 29.140625 81.851562 25.675781 73.914062 27.621094 C 66.203125 29.496094 56.1875 34.070312 45.695312 44.578125 C 12.828125 77.441406 -4.625 132.871094 118.960938 256.457031 C 242.546875 380.042969 297.960938 362.605469 330.839844 329.726562 C 341.363281 319.203125 345.921875 309.175781 347.8125 301.449219 C 349.730469 293.523438 346.316406 285.371094 339.289062 281.253906 C 321.734375 270.984375 283.875 248.816406 266.320312 238.535156 Z M 266.320312 238.535156 " fill-opacity="1" fill-rule="nonzero"/></svg>