<svg xmlns="http://www.w3.org/2000/svg" xmlns:xlink="http://www.w3.org/1999/xlink" width="1080" zoomAndPan="magnify" viewBox="0 0 810 809.999993" height="1080" preserveAspectRatio="xMidYMid meet" version="1.0"><defs><g/><clipPath id="7974f7dc4d"><path d="M 60.636719 269.246094 L 332.144531 269.246094 L 332.144531 540.753906 L 60.636719 540.753906 Z M 60.636719 269.246094 " clip-rule="nonzero"/></clipPath><clipPath id="a06d305f17"><path d="M 196.390625 269.246094 C 121.414062 269.246094 60.636719 330.023438 60.636719 405 C 60.636719 479.976562 121.414062 540.753906 196.390625 540.753906 C 271.367188 540.753906 332.144531 479.976562 332.144531 405 C 332.144531 330.023438 271.367188 269.246094 196.390625 269.246094 Z M 196.390625 269.246094 " clip-rule="nonzero"/></clipPath></defs><g clip-path="url(#7974f7dc4d)"><g clip-path="url(#a06d305f17)"><path fill="#d7d1c6" d="M 60.636719 269.246094 L 332.144531 269.246094 L 332.144531 540.753906 L 60.636719 540.753906 Z M 60.636719 269.246094 " fill-opacity="1" fill-rule="nonzero"/></g></g><g fill="#000000" fill-opacity="1"><g transform="translate(39.523557, 450.566091)"><g><path d="M 57.578125 -6.46875 C 52.679688 -1.320312 45.359375 1.25 35.609375 1.25 C 32.367188 1.25 28.972656 0.617188 25.421875 -0.640625 C 21.878906 -1.910156 18.769531 -3.894531 16.09375 -6.59375 C 13.414062 -9.289062 11.296875 -12.722656 9.734375 -16.890625 C 8.179688 -21.066406 7.40625 -25.894531 7.40625 -31.375 C 7.40625 -41.664062 10.410156 -49.796875 16.421875 -55.765625 C 22.441406 -61.742188 29.789062 -64.734375 38.46875 -64.734375 C 43.945312 -64.734375 49.007812 -63.613281 53.65625 -61.375 C 55.15625 -60.664062 56.460938 -59.878906 57.578125 -59.015625 L 57.578125 -99.96875 L 44.6875 -99.96875 L 44.6875 -104.828125 L 73.765625 -104.828125 L 73.765625 -4.859375 L 82.984375 -4.859375 L 82.984375 0 L 57.578125 0 Z M 41.078125 -59.390625 C 30.253906 -59.390625 24.84375 -50.257812 24.84375 -32 C 24.84375 -18.425781 27.765625 -9.875 33.609375 -6.34375 C 35.648438 -5.101562 38.234375 -4.492188 41.359375 -4.515625 C 44.492188 -4.535156 47.503906 -5.394531 50.390625 -7.09375 C 53.273438 -8.800781 55.671875 -11.082031 57.578125 -13.9375 L 57.578125 -52.40625 C 54.378906 -55.726562 50.3125 -57.890625 45.375 -58.890625 C 43.882812 -59.222656 42.453125 -59.390625 41.078125 -59.390625 Z M 41.078125 -59.390625 "/></g></g></g><g fill="#000000" fill-opacity="1"><g transform="translate(138.254033, 450.566091)"><g><path d="M 66.734375 -10.890625 C 60.210938 -2.796875 50.9375 1.25 38.90625 1.25 C 34.914062 1.25 30.765625 0.410156 26.453125 -1.265625 C 22.140625 -2.953125 18.46875 -5.269531 15.4375 -8.21875 C 9.164062 -14.4375 6.03125 -22.367188 6.03125 -32.015625 C 6.03125 -41.671875 9.1875 -49.523438 15.5 -55.578125 C 21.8125 -61.640625 29.820312 -64.671875 39.53125 -64.671875 C 53.800781 -64.671875 62.785156 -58.695312 66.484375 -46.75 C 67.679688 -42.925781 68.28125 -38.628906 68.28125 -33.859375 L 23.21875 -33.859375 L 23.21875 -32 C 23.21875 -19.175781 26.847656 -10.75 34.109375 -6.71875 C 36.554688 -5.351562 39.484375 -4.671875 42.890625 -4.671875 C 50.441406 -4.671875 57.289062 -7.738281 63.4375 -13.875 Z M 51.546875 -38.96875 C 51.460938 -45.601562 50.441406 -50.675781 48.484375 -54.1875 C 46.535156 -57.695312 43.34375 -59.453125 38.90625 -59.453125 C 29.894531 -59.453125 24.769531 -52.625 23.53125 -38.96875 Z M 51.546875 -38.96875 "/></g></g></g><g fill="#000000" fill-opacity="1"><g transform="translate(226.340856, 450.566091)"><g><path d="M 31 -55.09375 C 37.675781 -61.519531 44.894531 -64.734375 52.65625 -64.734375 C 55.144531 -64.734375 57.34375 -63.90625 59.25 -62.25 C 61.164062 -60.59375 62.125 -58.46875 62.125 -55.875 C 62.125 -53.28125 61.3125 -51.171875 59.6875 -49.546875 C 58.070312 -47.929688 56.101562 -47.125 53.78125 -47.125 C 51.457031 -47.125 49.492188 -47.921875 47.890625 -49.515625 C 46.296875 -51.117188 45.5 -53.101562 45.5 -55.46875 C 45.5 -56.414062 45.664062 -57.390625 46 -58.390625 C 39.976562 -56.566406 34.976562 -53.472656 31 -49.109375 L 31 -4.796875 L 44.625 -4.796875 L 44.625 0 L 5.421875 0 L 5.421875 -4.796875 L 14.6875 -4.796875 L 14.6875 -58.828125 L 5.359375 -58.828125 L 5.359375 -63.6875 L 31 -63.6875 Z M 31 -55.09375 "/></g></g></g><g fill="#000000" fill-opacity="1"><g transform="translate(303.846275, 450.566091)"><g><path d="M 28.1875 -78.859375 C 26.53125 -77.203125 24.519531 -76.375 22.15625 -76.375 C 19.789062 -76.375 17.757812 -77.191406 16.0625 -78.828125 C 14.363281 -80.472656 13.515625 -82.207031 13.515625 -84.03125 C 13.515625 -87.101562 14.34375 -89.46875 16 -91.125 C 17.65625 -92.789062 19.6875 -93.625 22.09375 -93.625 C 25.914062 -93.625 28.550781 -91.878906 30 -88.390625 C 30.457031 -87.359375 30.6875 -86.238281 30.6875 -85.03125 C 30.6875 -82.582031 29.851562 -80.523438 28.1875 -78.859375 Z M 3.796875 -4.859375 L 13.875 -4.859375 L 13.875 -58.828125 L 4.671875 -58.828125 L 4.671875 -63.6875 L 30.375 -63.6875 L 30.375 -4.859375 L 40.46875 -4.859375 L 40.46875 0 L 3.796875 0 Z M 3.796875 -4.859375 "/></g></g></g><g fill="#000000" fill-opacity="1"><g transform="translate(360.126648, 450.566091)"><g><path d="M 6.40625 -58.828125 L -0.0625 -58.828125 L -0.0625 -63.6875 L 32.75 -63.6875 L 32.75 -58.828125 L 24.71875 -58.828125 L 43.390625 -16.0625 L 60.1875 -58.828125 L 51.796875 -58.828125 L 51.796875 -63.6875 L 74.453125 -63.6875 L 74.453125 -58.828125 L 66.359375 -58.828125 L 41.703125 1.25 L 35.171875 1.25 Z M 6.40625 -58.828125 "/></g></g></g><g fill="#000000" fill-opacity="1"><g transform="translate(448.275721, 450.566091)"><g><path d="M 66.734375 -10.890625 C 60.210938 -2.796875 50.9375 1.25 38.90625 1.25 C 34.914062 1.25 30.765625 0.410156 26.453125 -1.265625 C 22.140625 -2.953125 18.46875 -5.269531 15.4375 -8.21875 C 9.164062 -14.4375 6.03125 -22.367188 6.03125 -32.015625 C 6.03125 -41.671875 9.1875 -49.523438 15.5 -55.578125 C 21.8125 -61.640625 29.820312 -64.671875 39.53125 -64.671875 C 53.800781 -64.671875 62.785156 -58.695312 66.484375 -46.75 C 67.679688 -42.925781 68.28125 -38.628906 68.28125 -33.859375 L 23.21875 -33.859375 L 23.21875 -32 C 23.21875 -19.175781 26.847656 -10.75 34.109375 -6.71875 C 36.554688 -5.351562 39.484375 -4.671875 42.890625 -4.671875 C 50.441406 -4.671875 57.289062 -7.738281 63.4375 -13.875 Z M 51.546875 -38.96875 C 51.460938 -45.601562 50.441406 -50.675781 48.484375 -54.1875 C 46.535156 -57.695312 43.34375 -59.453125 38.90625 -59.453125 C 29.894531 -59.453125 24.769531 -52.625 23.53125 -38.96875 Z M 51.546875 -38.96875 "/></g></g></g><g fill="#000000" fill-opacity="1"><g transform="translate(536.362531, 450.566091)"><g><path d="M 31 -55.09375 C 37.675781 -61.519531 44.894531 -64.734375 52.65625 -64.734375 C 55.144531 -64.734375 57.34375 -63.90625 59.25 -62.25 C 61.164062 -60.59375 62.125 -58.46875 62.125 -55.875 C 62.125 -53.28125 61.3125 -51.171875 59.6875 -49.546875 C 58.070312 -47.929688 56.101562 -47.125 53.78125 -47.125 C 51.457031 -47.125 49.492188 -47.921875 47.890625 -49.515625 C 46.296875 -51.117188 45.5 -53.101562 45.5 -55.46875 C 45.5 -56.414062 45.664062 -57.390625 46 -58.390625 C 39.976562 -56.566406 34.976562 -53.472656 31 -49.109375 L 31 -4.796875 L 44.625 -4.796875 L 44.625 0 L 5.421875 0 L 5.421875 -4.796875 L 14.6875 -4.796875 L 14.6875 -58.828125 L 5.359375 -58.828125 L 5.359375 -63.6875 L 31 -63.6875 Z M 31 -55.09375 "/></g></g></g><g fill="#000000" fill-opacity="1"><g transform="translate(613.86795, 450.566091)"><g><path d="M 42.765625 -8.09375 C 62.429688 -8.09375 72.265625 -1.640625 72.265625 11.265625 C 72.265625 18.984375 68.960938 24.84375 62.359375 28.84375 C 55.765625 32.851562 47.675781 34.859375 38.09375 34.859375 C 23.570312 34.859375 13.820312 31.972656 8.84375 26.203125 C 7.007812 24.128906 6.09375 21.910156 6.09375 19.546875 C 6.09375 15.640625 7.335938 12.359375 9.828125 9.703125 C 12.316406 7.054688 15.492188 5.171875 19.359375 4.046875 C 15.992188 3.460938 13.191406 2.050781 10.953125 -0.1875 C 8.710938 -2.425781 7.59375 -4.6875 7.59375 -6.96875 C 7.59375 -10.707031 8.640625 -13.894531 10.734375 -16.53125 C 12.828125 -19.164062 15.453125 -21.289062 18.609375 -22.90625 C 12.179688 -27.257812 8.96875 -33.046875 8.96875 -40.265625 C 8.96875 -47.492188 11.691406 -53.367188 17.140625 -57.890625 C 22.597656 -62.410156 28.90625 -64.671875 36.0625 -64.671875 C 43.226562 -64.671875 49.28125 -63.113281 54.21875 -60 C 56.582031 -60.414062 58.453125 -61.1875 59.828125 -62.3125 C 57.171875 -63.84375 55.84375 -65.820312 55.84375 -68.25 C 55.84375 -70.675781 56.378906 -72.453125 57.453125 -73.578125 C 59.398438 -75.648438 61.453125 -76.6875 63.609375 -76.6875 C 65.773438 -76.6875 67.613281 -75.957031 69.125 -74.5 C 70.644531 -73.050781 71.40625 -71.019531 71.40625 -68.40625 C 71.40625 -65.789062 69.984375 -63.3125 67.140625 -60.96875 C 64.296875 -58.625 61.441406 -57.160156 58.578125 -56.578125 C 63.179688 -52.054688 65.484375 -46.597656 65.484375 -40.203125 C 65.484375 -33.816406 62.734375 -28.472656 57.234375 -24.171875 C 51.734375 -19.878906 44.957031 -17.734375 36.90625 -17.734375 C 31.5625 -17.734375 26.769531 -18.710938 22.53125 -20.671875 C 18.132812 -18.796875 15.9375 -16.367188 15.9375 -13.390625 C 15.9375 -9.859375 19.046875 -8.09375 25.265625 -8.09375 Z M 36.84375 -22.90625 C 45.8125 -22.90625 50.296875 -29.003906 50.296875 -41.203125 C 50.296875 -53.410156 45.914062 -59.515625 37.15625 -59.515625 C 30.1875 -59.515625 26.0625 -55.695312 24.78125 -48.0625 C 24.363281 -45.769531 24.15625 -43.335938 24.15625 -40.765625 C 24.15625 -32.054688 26.269531 -26.5625 30.5 -24.28125 C 32.15625 -23.363281 34.269531 -22.90625 36.84375 -22.90625 Z M 18.234375 17.671875 C 18.234375 25.679688 25.0625 29.6875 38.71875 29.6875 C 45.6875 29.6875 51.085938 28.441406 54.921875 25.953125 C 58.765625 23.460938 60.6875 20.351562 60.6875 16.625 C 60.6875 11.476562 58.21875 7.90625 53.28125 5.90625 C 51.5 5.207031 49.320312 4.859375 46.75 4.859375 L 27.765625 4.859375 C 24.941406 5.597656 22.644531 7.128906 20.875 9.453125 C 19.113281 11.785156 18.234375 14.523438 18.234375 17.671875 Z M 18.234375 17.671875 "/></g></g></g><g fill="#000000" fill-opacity="1"><g transform="translate(701.954759, 450.566091)"><g><path d="M 66.734375 -10.890625 C 60.210938 -2.796875 50.9375 1.25 38.90625 1.25 C 34.914062 1.25 30.765625 0.410156 26.453125 -1.265625 C 22.140625 -2.953125 18.46875 -5.269531 15.4375 -8.21875 C 9.164062 -14.4375 6.03125 -22.367188 6.03125 -32.015625 C 6.03125 -41.671875 9.1875 -49.523438 15.5 -55.578125 C 21.8125 -61.640625 29.820312 -64.671875 39.53125 -64.671875 C 53.800781 -64.671875 62.785156 -58.695312 66.484375 -46.75 C 67.679688 -42.925781 68.28125 -38.628906 68.28125 -33.859375 L 23.21875 -33.859375 L 23.21875 -32 C 23.21875 -19.175781 26.847656 -10.75 34.109375 -6.71875 C 36.554688 -5.351562 39.484375 -4.671875 42.890625 -4.671875 C 50.441406 -4.671875 57.289062 -7.738281 63.4375 -13.875 Z M 51.546875 -38.96875 C 51.460938 -45.601562 50.441406 -50.675781 48.484375 -54.1875 C 46.535156 -57.695312 43.34375 -59.453125 38.90625 -59.453125 C 29.894531 -59.453125 24.769531 -52.625 23.53125 -38.96875 Z M 51.546875 -38.96875 "/></g></g></g><g fill="#000000" fill-opacity="1"><g transform="translate(121.811866, 375.172412)"><g><path d="M 12.640625 0 L 7.90625 -8.109375 L 4.78125 -8.109375 L 4.78125 0 L 2.1875 0 L 2.1875 -19.828125 L 8.59375 -19.828125 C 10.09375 -19.828125 11.359375 -19.570312 12.390625 -19.0625 C 13.421875 -18.550781 14.191406 -17.859375 14.703125 -16.984375 C 15.222656 -16.109375 15.484375 -15.113281 15.484375 -14 C 15.484375 -12.632812 15.085938 -11.429688 14.296875 -10.390625 C 13.503906 -9.347656 12.320312 -8.65625 10.75 -8.3125 L 15.734375 0 Z M 4.78125 -10.1875 L 8.59375 -10.1875 C 10 -10.1875 11.050781 -10.53125 11.75 -11.21875 C 12.445312 -11.914062 12.796875 -12.84375 12.796875 -14 C 12.796875 -15.175781 12.453125 -16.085938 11.765625 -16.734375 C 11.078125 -17.378906 10.019531 -17.703125 8.59375 -17.703125 L 4.78125 -17.703125 Z M 4.78125 -10.1875 "/></g></g></g><g fill="#000000" fill-opacity="1"><g transform="translate(149.971226, 375.172412)"><g><path d="M 4.78125 -17.71875 L 4.78125 -11.09375 L 12 -11.09375 L 12 -8.96875 L 4.78125 -8.96875 L 4.78125 -2.140625 L 12.859375 -2.140625 L 12.859375 0 L 2.1875 0 L 2.1875 -19.859375 L 12.859375 -19.859375 L 12.859375 -17.71875 Z M 4.78125 -17.71875 "/></g></g></g><g fill="#000000" fill-opacity="1"><g transform="translate(175.428647, 375.172412)"><g><path d="M 13.90625 -4.40625 L 5.265625 -4.40625 L 3.671875 0 L 0.9375 0 L 8.109375 -19.71875 L 11.09375 -19.71875 L 18.234375 0 L 15.5 0 Z M 13.171875 -6.515625 L 9.59375 -16.53125 L 6 -6.515625 Z M 13.171875 -6.515625 "/></g></g></g><g fill="#000000" fill-opacity="1"><g transform="translate(205.465147, 375.172412)"><g><path d="M 4.78125 -2.109375 L 11.71875 -2.109375 L 11.71875 0 L 2.1875 0 L 2.1875 -19.828125 L 4.78125 -19.828125 Z M 4.78125 -2.109375 "/></g></g></g><g fill="#000000" fill-opacity="1"><g transform="translate(228.618815, 375.172412)"><g><path d="M 4.78125 -19.828125 L 4.78125 0 L 2.1875 0 L 2.1875 -19.828125 Z M 4.78125 -19.828125 "/></g></g></g><g fill="#000000" fill-opacity="1"><g transform="translate(246.482389, 375.172412)"><g><path d="M 14.390625 -19.828125 L 14.390625 -17.71875 L 8.984375 -17.71875 L 8.984375 0 L 6.40625 0 L 6.40625 -17.71875 L 0.96875 -17.71875 L 0.96875 -19.828125 Z M 14.390625 -19.828125 "/></g></g></g><g fill="#000000" fill-opacity="1"><g transform="translate(272.736176, 375.172412)"><g><path d="M 17.78125 0 L 15.1875 0 L 4.78125 -15.796875 L 4.78125 0 L 2.1875 0 L 2.1875 -19.859375 L 4.78125 -19.859375 L 15.1875 -4.09375 L 15.1875 -19.859375 L 17.78125 -19.859375 Z M 17.78125 0 "/></g></g></g><g fill="#000000" fill-opacity="1"><g transform="translate(303.59748, 375.172412)"><g><path d="M 4.78125 -19.828125 L 4.78125 0 L 2.1875 0 L 2.1875 -19.828125 Z M 6.265625 -24.125 L 0.203125 -20.890625 L 0.203125 -22.8125 L 6.265625 -26.375 Z M 6.265625 -24.125 "/></g></g></g><g fill="#000000" fill-opacity="1"><g transform="translate(321.461042, 375.172412)"><g/></g></g><g fill="#000000" fill-opacity="1"><g transform="translate(339.921872, 375.172412)"><g><path d="M 12.953125 0 L 4.78125 -9.046875 L 4.78125 0 L 2.1875 0 L 2.1875 -19.828125 L 4.78125 -19.828125 L 4.78125 -10.640625 L 12.96875 -19.828125 L 16.25 -19.828125 L 7.25 -9.90625 L 16.328125 0 Z M 12.953125 0 "/></g></g></g><g fill="#000000" fill-opacity="1"><g transform="translate(367.825268, 375.172412)"><g><path d="M 13.90625 -4.40625 L 5.265625 -4.40625 L 3.671875 0 L 0.9375 0 L 8.109375 -19.71875 L 11.09375 -19.71875 L 18.234375 0 L 15.5 0 Z M 13.171875 -6.515625 L 9.59375 -16.53125 L 6 -6.515625 Z M 13.171875 -6.515625 "/></g></g></g><g fill="#000000" fill-opacity="1"><g transform="translate(397.861773, 375.172412)"><g><path d="M 17.78125 0 L 15.1875 0 L 4.78125 -15.796875 L 4.78125 0 L 2.1875 0 L 2.1875 -19.859375 L 4.78125 -19.859375 L 15.1875 -4.09375 L 15.1875 -19.859375 L 17.78125 -19.859375 Z M 17.78125 0 "/></g></g></g><g fill="#000000" fill-opacity="1"><g transform="translate(428.723077, 375.172412)"><g><path d="M 1.21875 -9.9375 C 1.21875 -11.863281 1.65625 -13.597656 2.53125 -15.140625 C 3.40625 -16.691406 4.59375 -17.90625 6.09375 -18.78125 C 7.601562 -19.65625 9.28125 -20.09375 11.125 -20.09375 C 13.289062 -20.09375 15.175781 -19.566406 16.78125 -18.515625 C 18.394531 -17.472656 19.570312 -15.992188 20.3125 -14.078125 L 17.21875 -14.078125 C 16.664062 -15.273438 15.867188 -16.195312 14.828125 -16.84375 C 13.796875 -17.488281 12.5625 -17.8125 11.125 -17.8125 C 9.738281 -17.8125 8.492188 -17.488281 7.390625 -16.84375 C 6.296875 -16.195312 5.4375 -15.28125 4.8125 -14.09375 C 4.1875 -12.90625 3.875 -11.519531 3.875 -9.9375 C 3.875 -8.351562 4.1875 -6.96875 4.8125 -5.78125 C 5.4375 -4.601562 6.296875 -3.691406 7.390625 -3.046875 C 8.492188 -2.398438 9.738281 -2.078125 11.125 -2.078125 C 12.5625 -2.078125 13.796875 -2.394531 14.828125 -3.03125 C 15.867188 -3.664062 16.664062 -4.582031 17.21875 -5.78125 L 20.3125 -5.78125 C 19.570312 -3.882812 18.394531 -2.414062 16.78125 -1.375 C 15.175781 -0.34375 13.289062 0.171875 11.125 0.171875 C 9.28125 0.171875 7.601562 -0.257812 6.09375 -1.125 C 4.59375 -1.988281 3.40625 -3.1875 2.53125 -4.71875 C 1.65625 -6.257812 1.21875 -8 1.21875 -9.9375 Z M 1.21875 -9.9375 "/></g></g></g><g fill="#000000" fill-opacity="1"><g transform="translate(461.546836, 375.172412)"><g><path d="M 4.78125 -17.71875 L 4.78125 -11.09375 L 12 -11.09375 L 12 -8.96875 L 4.78125 -8.96875 L 4.78125 -2.140625 L 12.859375 -2.140625 L 12.859375 0 L 2.1875 0 L 2.1875 -19.859375 L 12.859375 -19.859375 L 12.859375 -17.71875 Z M 4.78125 -17.71875 "/></g></g></g><g fill="#000000" fill-opacity="1"><g transform="translate(487.004263, 375.172412)"><g><path d="M 4.78125 -2.109375 L 11.71875 -2.109375 L 11.71875 0 L 2.1875 0 L 2.1875 -19.828125 L 4.78125 -19.828125 Z M 4.78125 -2.109375 "/></g></g></g><g fill="#000000" fill-opacity="1"><g transform="translate(510.157948, 375.172412)"><g><path d="M 13.90625 -4.40625 L 5.265625 -4.40625 L 3.671875 0 L 0.9375 0 L 8.109375 -19.71875 L 11.09375 -19.71875 L 18.234375 0 L 15.5 0 Z M 13.171875 -6.515625 L 9.59375 -16.53125 L 6 -6.515625 Z M 12.375 -24.125 L 6.3125 -20.890625 L 6.3125 -22.8125 L 12.375 -26.375 Z M 12.375 -24.125 "/></g></g></g><g fill="#000000" fill-opacity="1"><g transform="translate(540.19443, 375.172412)"><g><path d="M 12.640625 0 L 7.90625 -8.109375 L 4.78125 -8.109375 L 4.78125 0 L 2.1875 0 L 2.1875 -19.828125 L 8.59375 -19.828125 C 10.09375 -19.828125 11.359375 -19.570312 12.390625 -19.0625 C 13.421875 -18.550781 14.191406 -17.859375 14.703125 -16.984375 C 15.222656 -16.109375 15.484375 -15.113281 15.484375 -14 C 15.484375 -12.632812 15.085938 -11.429688 14.296875 -10.390625 C 13.503906 -9.347656 12.320312 -8.65625 10.75 -8.3125 L 15.734375 0 Z M 4.78125 -10.1875 L 8.59375 -10.1875 C 10 -10.1875 11.050781 -10.53125 11.75 -11.21875 C 12.445312 -11.914062 12.796875 -12.84375 12.796875 -14 C 12.796875 -15.175781 12.453125 -16.085938 11.765625 -16.734375 C 11.078125 -17.378906 10.019531 -17.703125 8.59375 -17.703125 L 4.78125 -17.703125 Z M 12.765625 -23.4375 L 8.84375 -21.109375 L 4.890625 -23.4375 L 4.890625 -25.5 L 8.84375 -23.078125 L 12.765625 -25.5 Z M 12.765625 -23.4375 "/></g></g></g></svg>