<svg xmlns="http://www.w3.org/2000/svg" xmlns:xlink="http://www.w3.org/1999/xlink" width="40" zoomAndPan="magnify" viewBox="0 0 30 187.499995" height="250" preserveAspectRatio="xMidYMid meet" version="1.0"><defs><clipPath id="2ab35c4377"><path d="M 4.300781 100.457031 L 25.699219 100.457031 L 25.699219 121.855469 L 4.300781 121.855469 Z M 4.300781 100.457031 " clip-rule="nonzero"/></clipPath><clipPath id="e65f776234"><path d="M 15 100.457031 C 9.089844 100.457031 4.300781 105.246094 4.300781 111.15625 C 4.300781 117.066406 9.089844 121.855469 15 121.855469 C 20.910156 121.855469 25.699219 117.066406 25.699219 111.15625 C 25.699219 105.246094 20.910156 100.457031 15 100.457031 Z M 15 100.457031 " clip-rule="nonzero"/></clipPath><clipPath id="ef5346069f"><path d="M 4.300781 131.578125 L 25.699219 131.578125 L 25.699219 152.972656 L 4.300781 152.972656 Z M 4.300781 131.578125 " clip-rule="nonzero"/></clipPath><clipPath id="22440b9263"><path d="M 15 131.578125 C 9.089844 131.578125 4.300781 136.367188 4.300781 142.273438 C 4.300781 148.183594 9.089844 152.972656 15 152.972656 C 20.910156 152.972656 25.699219 148.183594 25.699219 142.273438 C 25.699219 136.367188 20.910156 131.578125 15 131.578125 Z M 15 131.578125 " clip-rule="nonzero"/></clipPath><clipPath id="6cd9bf13f6"><path d="M 4.300781 165.605469 L 25.699219 165.605469 L 25.699219 187 L 4.300781 187 Z M 4.300781 165.605469 " clip-rule="nonzero"/></clipPath><clipPath id="96f1e7502a"><path d="M 15 165.605469 C 9.089844 165.605469 4.300781 170.394531 4.300781 176.304688 C 4.300781 182.210938 9.089844 187 15 187 C 20.910156 187 25.699219 182.210938 25.699219 176.304688 C 25.699219 170.394531 20.910156 165.605469 15 165.605469 Z M 15 165.605469 " clip-rule="nonzero"/></clipPath></defs><path stroke-linecap="round" transform="matrix(0, -0.748005, 0.748005, 0, 4.153923, 93.500658)" fill="none" stroke-linejoin="miter" d="M 14.49777 14.500001 L 106.497665 14.500001 " stroke="#d7d1c6" stroke-width="29" stroke-opacity="1" stroke-miterlimit="4"/><g clip-path="url(#2ab35c4377)"><g clip-path="url(#e65f776234)"><path fill="#d7d1c6" d="M 4.300781 100.457031 L 25.699219 100.457031 L 25.699219 121.855469 L 4.300781 121.855469 Z M 4.300781 100.457031 " fill-opacity="1" fill-rule="nonzero"/></g></g><g clip-path="url(#ef5346069f)"><g clip-path="url(#22440b9263)"><path fill="#d7d1c6" d="M 4.300781 131.578125 L 25.699219 131.578125 L 25.699219 152.972656 L 4.300781 152.972656 Z M 4.300781 131.578125 " fill-opacity="1" fill-rule="nonzero"/></g></g><g clip-path="url(#6cd9bf13f6)"><g clip-path="url(#96f1e7502a)"><path fill="#d7d1c6" d="M 4.300781 165.605469 L 25.699219 165.605469 L 25.699219 187 L 4.300781 187 Z M 4.300781 165.605469 " fill-opacity="1" fill-rule="nonzero"/></g></g></svg>