<svg xmlns="http://www.w3.org/2000/svg" xmlns:xlink="http://www.w3.org/1999/xlink" width="40" zoomAndPan="magnify" viewBox="0 0 30 1649.999929" height="2200" preserveAspectRatio="xMidYMid meet" version="1.0"><defs><clipPath id="f64304da81"><path d="M 4.273438 260.480469 L 25.726562 260.480469 L 25.726562 281.933594 L 4.273438 281.933594 Z M 4.273438 260.480469 " clip-rule="nonzero"/></clipPath><clipPath id="0e0d926c67"><path d="M 15 260.480469 C 9.074219 260.480469 4.273438 265.285156 4.273438 271.207031 C 4.273438 277.132812 9.074219 281.933594 15 281.933594 C 20.925781 281.933594 25.726562 277.132812 25.726562 271.207031 C 25.726562 265.285156 20.925781 260.480469 15 260.480469 Z M 15 260.480469 " clip-rule="nonzero"/></clipPath><clipPath id="0a04ce2bdc"><path d="M 4.273438 229.0625 L 25.726562 229.0625 L 25.726562 250.515625 L 4.273438 250.515625 Z M 4.273438 229.0625 " clip-rule="nonzero"/></clipPath><clipPath id="cdc60aac49"><path d="M 15 229.0625 C 9.074219 229.0625 4.273438 233.867188 4.273438 239.789062 C 4.273438 245.714844 9.074219 250.515625 15 250.515625 C 20.925781 250.515625 25.726562 245.714844 25.726562 239.789062 C 25.726562 233.867188 20.925781 229.0625 15 229.0625 Z M 15 229.0625 " clip-rule="nonzero"/></clipPath><clipPath id="f8ee9834e3"><path d="M 4.273438 192.1875 L 25.726562 192.1875 L 25.726562 213.640625 L 4.273438 213.640625 Z M 4.273438 192.1875 " clip-rule="nonzero"/></clipPath><clipPath id="ce74876107"><path d="M 15 192.1875 C 9.074219 192.1875 4.273438 196.992188 4.273438 202.914062 C 4.273438 208.839844 9.074219 213.640625 15 213.640625 C 20.925781 213.640625 25.726562 208.839844 25.726562 202.914062 C 25.726562 196.992188 20.925781 192.1875 15 192.1875 Z M 15 192.1875 " clip-rule="nonzero"/></clipPath><clipPath id="4215dc75c8"><path d="M 4.265625 1368.96875 L 25.71875 1368.96875 L 25.71875 1390.421875 L 4.265625 1390.421875 Z M 4.265625 1368.96875 " clip-rule="nonzero"/></clipPath><clipPath id="f01520c324"><path d="M 14.992188 1390.421875 C 20.917969 1390.421875 25.71875 1385.617188 25.71875 1379.695312 C 25.71875 1373.769531 20.917969 1368.96875 14.992188 1368.96875 C 9.066406 1368.96875 4.265625 1373.769531 4.265625 1379.695312 C 4.265625 1385.617188 9.066406 1390.421875 14.992188 1390.421875 Z M 14.992188 1390.421875 " clip-rule="nonzero"/></clipPath><clipPath id="17d62a6d23"><path d="M 4.265625 1400.386719 L 25.71875 1400.386719 L 25.71875 1421.839844 L 4.265625 1421.839844 Z M 4.265625 1400.386719 " clip-rule="nonzero"/></clipPath><clipPath id="42dea62025"><path d="M 14.992188 1421.839844 C 20.917969 1421.839844 25.71875 1417.035156 25.71875 1411.113281 C 25.71875 1405.1875 20.917969 1400.386719 14.992188 1400.386719 C 9.066406 1400.386719 4.265625 1405.1875 4.265625 1411.113281 C 4.265625 1417.035156 9.066406 1421.839844 14.992188 1421.839844 Z M 14.992188 1421.839844 " clip-rule="nonzero"/></clipPath><clipPath id="8ba0a3ccb8"><path d="M 4.265625 1437.261719 L 25.71875 1437.261719 L 25.71875 1458.714844 L 4.265625 1458.714844 Z M 4.265625 1437.261719 " clip-rule="nonzero"/></clipPath><clipPath id="b51597f7f3"><path d="M 14.992188 1458.714844 C 20.917969 1458.714844 25.71875 1453.910156 25.71875 1447.988281 C 25.71875 1442.0625 20.917969 1437.261719 14.992188 1437.261719 C 9.066406 1437.261719 4.265625 1442.0625 4.265625 1447.988281 C 4.265625 1453.910156 9.066406 1458.714844 14.992188 1458.714844 Z M 14.992188 1458.714844 " clip-rule="nonzero"/></clipPath></defs><path stroke-linecap="round" transform="matrix(0, 0.75, -0.75, 0, 25.870558, 287.238236)" fill="none" stroke-linejoin="miter" d="M 14.500061 14.499287 L 1419.541847 14.499287 " stroke="#d7d1c6" stroke-width="29" stroke-opacity="1" stroke-miterlimit="4"/><g clip-path="url(#f64304da81)"><g clip-path="url(#0e0d926c67)"><path fill="#d7d1c6" d="M 4.273438 260.480469 L 25.726562 260.480469 L 25.726562 281.933594 L 4.273438 281.933594 Z M 4.273438 260.480469 " fill-opacity="1" fill-rule="nonzero"/></g></g><g clip-path="url(#0a04ce2bdc)"><g clip-path="url(#cdc60aac49)"><path fill="#d7d1c6" d="M 4.273438 229.0625 L 25.726562 229.0625 L 25.726562 250.515625 L 4.273438 250.515625 Z M 4.273438 229.0625 " fill-opacity="1" fill-rule="nonzero"/></g></g><g clip-path="url(#f8ee9834e3)"><g clip-path="url(#ce74876107)"><path fill="#d7d1c6" d="M 4.273438 192.1875 L 25.726562 192.1875 L 25.726562 213.640625 L 4.273438 213.640625 Z M 4.273438 192.1875 " fill-opacity="1" fill-rule="nonzero"/></g></g><g clip-path="url(#4215dc75c8)"><g clip-path="url(#f01520c324)"><path fill="#d7d1c6" d="M 25.71875 1390.421875 L 4.265625 1390.421875 L 4.265625 1368.96875 L 25.71875 1368.96875 Z M 25.71875 1390.421875 " fill-opacity="1" fill-rule="nonzero"/></g></g><g clip-path="url(#17d62a6d23)"><g clip-path="url(#42dea62025)"><path fill="#d7d1c6" d="M 25.71875 1421.839844 L 4.265625 1421.839844 L 4.265625 1400.386719 L 25.71875 1400.386719 Z M 25.71875 1421.839844 " fill-opacity="1" fill-rule="nonzero"/></g></g><g clip-path="url(#8ba0a3ccb8)"><g clip-path="url(#b51597f7f3)"><path fill="#d7d1c6" d="M 25.71875 1458.714844 L 4.265625 1458.714844 L 4.265625 1437.261719 L 25.71875 1437.261719 Z M 25.71875 1458.714844 " fill-opacity="1" fill-rule="nonzero"/></g></g></svg>