<?xml version="1.0" encoding="utf-8"?>
<!-- Generator: Adobe Illustrator 26.2.1, SVG Export Plug-In . SVG Version: 6.00 Build 0)  -->
<svg version="1.1" id="Vrstva_1" xmlns="http://www.w3.org/2000/svg" xmlns:xlink="http://www.w3.org/1999/xlink" x="0px" y="0px"
	 viewBox="0 0 270 67" style="enable-background:new 0 0 270 67;" xml:space="preserve">
<style type="text/css">
	.st0{fill:url(#SVGID_1_);}
	.st1{opacity:0.2;fill:url(#SVGID_00000182521101892923047040000000136808290949111193_);enable-background:new    ;}
	.st2{opacity:0.12;fill:url(#SVGID_00000084516365662709269410000016423141724510247079_);enable-background:new    ;}
	.st3{fill:#0095DA;}
	.st4{fill:#2DB6FC;}
</style>
<linearGradient id="SVGID_1_" gradientUnits="userSpaceOnUse" x1="34.353" y1="-17.6996" x2="39.5564" y2="-85.9553" gradientTransform="matrix(1 0 0 -1 0 -17.8898)">
	<stop  offset="0" style="stop-color:#0095DA"/>
	<stop  offset="1" style="stop-color:#2DB6FC"/>
</linearGradient>
<path class="st0" d="M68.1,27.6L38.7,7.7c-1.3-0.9-2.9-0.9-4.2,0l-6.2,4.1L5.6,27.2l-0.5,0.4c-1.9,1.3-1,4.2,1.3,4.2h7.7v22.8
	c0,2.2,0.9,4.1,2.3,5.5s3.4,2.3,5.5,2.3c4.3,0,7.8-3.5,7.8-7.8V44.4l-5.5,4.1c-1.8,1.3-4.2,0.9-5.5-0.8c-1.3-1.8-0.9-4.2,0.8-5.5
	l7.6-5.6l6.9-5.1c0.8-0.6,1.7-0.8,2.6-0.8c0.9-0.1,1.8,0.2,2.6,0.8l14.5,10.7c1.8,1.3,2.1,3.7,0.8,5.5c-1.3,1.8-3.7,2.1-5.5,0.8
	l-5.7-4.2v10.3c0,2.2,0.9,4.1,2.3,5.5s3.4,2.3,5.5,2.3c4.3,0,7.8-3.5,7.8-7.8V31.7h7.7C69.1,31.7,70,28.8,68.1,27.6z M36.6,27.6
	c-2.1,0-3.9-1.7-3.9-3.9s1.7-3.9,3.9-3.9c2.1,0,3.9,1.7,3.9,3.9C40.5,25.9,38.8,27.6,36.6,27.6z"/>
<linearGradient id="SVGID_00000068677486428516689460000016986298051061060499_" gradientUnits="userSpaceOnUse" x1="28.8603" y1="-22.8599" x2="33.6776" y2="-86.0523" gradientTransform="matrix(1 0 0 -1 0 -17.8898)">
	<stop  offset="0" style="stop-color:#2DB6FC"/>
	<stop  offset="1" style="stop-color:#2DB6FC"/>
</linearGradient>
<path style="opacity:0.2;fill:url(#SVGID_00000068677486428516689460000016986298051061060499_);enable-background:new    ;" d="
	M28.4,11.8L5.6,27.2l-0.5,0.4c-1.9,1.3-1,4.2,1.3,4.2h7.7v22.8c0,2.2,0.9,4.1,2.3,5.5s3.4,2.3,5.5,2.3c4.3,0,7.8-3.5,7.8-7.8V44.4
	l-5.5,4.1c-1.8,1.3-4.2,0.9-5.5-0.8c-1.3-1.8-0.9-4.2,0.8-5.5l7.6-5.6l6.9-5.1c0.8-0.6,1.7-0.8,2.6-0.8c0.9-0.1,1.8,0.2,2.6,0.8
	l14.5,10.7c1.8,1.3,2.1,3.7,0.8,5.5c-1.3,1.8-3.7,2.1-5.5,0.8l-5.7-4.2v10.3c0,2.2,0.9,4.1,2.3,5.5s3.4,2.3,5.5,2.3
	c4.3,0,7.8-3.5,7.8-7.8v-2.3C55.3,30,42.1,18.1,28.4,11.8z M36.6,27.6c-2.1,0-3.9-1.7-3.9-3.9s1.7-3.9,3.9-3.9
	c2.1,0,3.9,1.7,3.9,3.9C40.5,25.9,38.8,27.6,36.6,27.6z"/>
<linearGradient id="SVGID_00000039110511603492195690000000030183905925460649_" gradientUnits="userSpaceOnUse" x1="15.7563" y1="-39.5526" x2="19.1141" y2="-83.5986" gradientTransform="matrix(1 0 0 -1 0 -17.8898)">
	<stop  offset="0" style="stop-color:#2DB6FC"/>
	<stop  offset="1" style="stop-color:#2DB6FC"/>
</linearGradient>
<path style="opacity:0.12;fill:url(#SVGID_00000039110511603492195690000000030183905925460649_);enable-background:new    ;" d="
	M29.8,44.4v10.2c0,4.3-3.5,7.8-7.8,7.8c-2.1,0-4.1-0.9-5.5-2.3s-2.3-3.4-2.3-5.5V31.7H6.4c-2.3,0-3.1-2.9-1.3-4.2l0.5-0.4
	c7.3,0.6,15.4,3,21.5,9.4l-7.6,5.6c-1.7,1.3-2.1,3.7-0.8,5.5c1.3,1.8,3.7,2.1,5.5,0.8L29.8,44.4z"/>
<path class="st3" d="M82.3,35.8H85l-6.5,19.6h-3L69,35.8h2.7l5.2,16.8L82.3,35.8z"/>
<path class="st3" d="M85.7,55.3H83l7-19.6h2.6l7,19.6h-2.7l-1.8-5.1h-7.8L85.7,55.3z M94.6,48.1l-3.3-9.6l-3.3,9.6H94.6z M94.5,30.2
	l-2.7,3.9h-2.2l2-3.9H94.5z"/>
<path class="st3" d="M103.3,49.1c-0.1,2.6,1.9,4.6,5.3,4.6c3.3,0,4.6-1.8,4.6-3.6c0-2.4-2-3.1-3.7-3.4c-4.2-1-8-1.3-8-5.9
	c0-3.7,2.8-5.6,7-5.6c4.6,0,6.7,2.6,6.9,5.7h-2.5c-0.3-3.3-3.3-3.5-4.5-3.5c-2.6,0-4.3,1.3-4.3,3.3c0,2.4,2.2,2.8,4.6,3.3
	c3.3,0.7,7.1,1.4,7.1,6.1c0,5.9-5.8,5.9-7.3,5.9c-2.6,0-7.4-0.6-7.7-6.8L103.3,49.1L103.3,49.1z M106.4,34.1l-3.3-3.9h2.5l2.7,2.9
	l2.7-2.9h2.5l-3.3,3.9H106.4z"/>
<path class="st3" d="M121,35.8h1.6v19.6H121V35.8z"/>
<path class="st4" d="M131.4,55.3h-2.5V35.8h2.8l9.9,15.5V35.8h2.5v19.6h-2.7l-9.9-15.5V55.3z"/>
<path class="st4" d="M148.9,55.3h-2.7l7-19.6h2.6l7,19.6h-2.7l-1.8-5.1h-7.8L148.9,55.3z M157.8,48.1l-3.3-9.6l-3.3,9.6H157.8z
	 M157.7,30.2l-2.7,3.9h-2.2l2-3.9H157.7z"/>
<path class="st4" d="M165.9,48.9c0,3.1,0.7,4.9,3.2,4.9c2.6,0,3.1-2,3.1-4.9v-13h2.5v12.8c0,5.1-1.5,7.3-5.6,7.3
	c-1.9,0-5.7-0.5-5.7-6v-1L165.9,48.9L165.9,48.9z"/>
<path class="st4" d="M191.1,44.1v2.2h-9.8v6.8h11v2.2h-13.5V35.8h13.3V38h-10.8v6.2L191.1,44.1L191.1,44.1z"/>
<path class="st4" d="M197.6,38.9L197.6,38.9v0.8v15.7h-2.5V35.8h3.7l5.8,16.1l5.8-16.1h3.7v19.6h-2.5V39.7l0-0.8h-0.1l-6,16.4h-2
	L197.6,38.9z"/>
<path class="st4" d="M221.2,55.3h-2.5V35.8h2.8l9.9,15.5V35.8h2.5v19.6h-2.7l-9.9-15.5V55.3z"/>
<path class="st4" d="M242.7,30.2l-2.7,3.9h-2.2l2-3.9H242.7z M240.8,35.8v19.6h-2.5V35.8C238.3,35.8,240.8,35.8,240.8,35.8z"/>
<path class="st4" d="M257,35.8h3.4l-7.7,8l8.3,11.5h-3.3l-6.8-9.8l-3,3.1v6.7h-2.5V35.8h2.5v9.7L257,35.8z"/>
</svg>
